<svg xmlns="http://www.w3.org/2000/svg" version="1.1" xmlns:xlink="http://www.w3.org/1999/xlink" xmlns:svgjs="http://svgjs.dev/svgjs" width="1000" height="247" viewBox="0 0 1000 247"><g transform="matrix(1,0,0,1,-0.6060606060606233,0.48874110226036294)"><svg viewBox="0 0 396 98" data-background-color="#ffffff" preserveAspectRatio="xMidYMid meet" height="247" width="1000" xmlns="http://www.w3.org/2000/svg" xmlns:xlink="http://www.w3.org/1999/xlink"><g id="tight-bounds" transform="matrix(1,0,0,1,0.2400000000000091,-0.1939134737713175)"><svg viewBox="0 0 395.52 98.38782694754265" height="98.38782694754265" width="395.52"><g><svg viewBox="0 0 550.3257072429337 136.8966182468694" height="98.38782694754265" width="395.52"><g transform="matrix(1,0,0,1,0,18.91986547406082)"><svg viewBox="0 0 395.52 99.05688729874775" height="99.05688729874775" width="395.52"><g><svg viewBox="0 0 395.52 99.05688729874775" height="99.05688729874775" width="395.52"><g><svg viewBox="0 0 395.52 99.05688729874775" height="99.05688729874775" width="395.52"><g transform="matrix(1,0,0,1,0,0)"><svg width="395.52" viewBox="5.699999809265137 -35 139.74000549316406 35" height="99.05688729874775" data-palette-color="#000000"><path d="M27.75-18.05Q31.2-17.3 33.08-15.08 34.95-12.85 34.95-9.35L34.95-9.35Q34.95-4.85 31.63-2.43 28.3 0 21.8 0L21.8 0 5.7 0 5.7-35 20.8-35Q26.65-35 29.88-32.65 33.1-30.3 33.1-26L33.1-26Q33.1-23.1 31.68-21.08 30.25-19.05 27.75-18.05L27.75-18.05ZM20.55-31.95L9.4-31.95 9.4-19.25 20.55-19.25Q24.8-19.25 27.1-20.88 29.4-22.5 29.4-25.6L29.4-25.6Q29.4-28.7 27.1-30.33 24.8-31.95 20.55-31.95L20.55-31.95ZM21.75-3.05Q26.45-3.05 28.85-4.65 31.25-6.25 31.25-9.65L31.25-9.65Q31.25-16.2 21.75-16.2L21.75-16.2 9.4-16.2 9.4-3.05 21.75-3.05ZM69-35L72.65-35 72.65 0 69.6 0 47.1-28.4 47.1 0 43.4 0 43.4-35 46.45-35 69-6.6 69-35ZM112 0L107.95 0 99.95-11.25Q98.6-11.1 97.15-11.1L97.15-11.1 87.75-11.1 87.75 0 84.05 0 84.05-35 97.15-35Q103.85-35 107.65-31.8 111.45-28.6 111.45-23L111.45-23Q111.45-18.9 109.37-16.07 107.3-13.25 103.45-12L103.45-12 112 0ZM97.05-14.25Q102.25-14.25 105-16.55 107.75-18.85 107.75-23L107.75-23Q107.75-27.25 105-29.53 102.25-31.8 97.05-31.8L97.05-31.8 87.75-31.8 87.75-14.25 97.05-14.25ZM145.44 0L141.14 0 129.84-15.4 118.59 0 114.34 0 127.64-18 115.19-35 119.44-35 129.99-20.7 140.49-35 144.49-35 132.09-18.1 145.44 0Z" opacity="1" transform="matrix(1,0,0,1,0,0)" fill="#000000" class="undefined-text-0" data-fill-palette-color="primary" id="text-0"></path></svg></g></svg></g></svg></g></svg></g><g transform="matrix(1,0,0,1,418.90495372593915,0)"><svg viewBox="0 0 131.4207535169946 136.8966182468694" height="136.8966182468694" width="131.4207535169946"><g><svg xmlns="http://www.w3.org/2000/svg" xmlns:xlink="http://www.w3.org/1999/xlink" version="1.1" x="0" y="0" viewBox="8 7.5 24 25" enable-background="new 0 0 40 40" xml:space="preserve" height="136.8966182468694" width="131.4207535169946" class="icon-icon-0" data-fill-palette-color="accent" id="icon-0"><path fill-rule="evenodd" clip-rule="evenodd" d="M12 10.5v-3H8v2h2v13c0 1.1 0.9 2 2 2v5h2.3c-0.2 0.3-0.3 0.6-0.3 1 0 1.1 0.9 2 2 2 1.1 0 2-0.9 2-2 0-0.4-0.1-0.7-0.3-1h6.6c-0.2 0.3-0.3 0.6-0.3 1 0 1.1 0.9 2 2 2 1.1 0 2-0.9 2-2 0-0.4-0.1-0.7-0.3-1H30v-2H14v-3h16c1.1 0 2-0.9 2-2v-12H12zM14 22.5h-2v-2h2V22.5zM14 18.5h-2v-2h2V18.5zM14 14.5h-2v-2h2V14.5zM18 22.5h-2v-2h2V22.5zM18 18.5h-2v-2h2V18.5zM18 14.5h-2v-2h2V14.5zM22 22.5h-2v-2h2V22.5zM22 18.5h-2v-2h2V18.5zM22 14.5h-2v-2h2V14.5zM26 22.5h-2v-2h2V22.5zM26 18.5h-2v-2h2V18.5zM26 14.5h-2v-2h2V14.5zM30 22.5h-2v-2h2V22.5zM30 18.5h-2v-2h2V18.5zM30 14.5h-2v-2h2V14.5z" fill="#3e3939" data-fill-palette-color="accent"></path></svg></g></svg></g></svg></g><defs></defs></svg><rect width="395.52" height="98.38782694754265" fill="none" stroke="none" visibility="hidden"></rect></g></svg></g></svg>